<?xml version="1.0" encoding="iso-8859-1"?>
<!-- Generator: Adobe Illustrator 19.0.0, SVG Export Plug-In . SVG Version: 6.00 Build 0)  -->
<svg version="1.1" id="Layer_1" xmlns="http://www.w3.org/2000/svg" xmlns:xlink="http://www.w3.org/1999/xlink" x="0px" y="0px"
	 viewBox="0 0 512 512" style="enable-background:new 0 0 512 512;" xml:space="preserve">
<path style="fill:#E3DCD2;" d="M512,187.733c0-51.841-42.026-93.867-93.867-93.867c-2.879,0-5.726,0.137-8.539,0.39
	c0-0.13,0.005-0.26,0.005-0.39C409.6,42.026,367.574,0,315.733,0C293.041,0,272.229,8.052,256,21.456
	C239.771,8.052,218.959,0,196.267,0C144.426,0,102.4,42.026,102.4,93.867c0,0.13,0.004,0.26,0.005,0.39
	c-2.813-0.254-5.66-0.39-8.539-0.39C42.026,93.867,0,135.892,0,187.733c0,33.063,17.097,62.13,42.929,78.852
	c5.518,112.902,98.8,202.748,213.071,202.748s207.553-89.845,213.071-202.748C494.903,249.863,512,220.797,512,187.733z"/>
<path style="fill:#D6CABB;" d="M317.689,426.667c-135.591,0-245.51-109.919-245.51-245.511c0-30.677,5.644-60.033,15.921-87.107
	C38.945,97.028,0,137.829,0,187.733c0,33.063,17.097,62.13,42.929,78.852c5.518,112.902,98.8,202.748,213.071,202.748
	c56.252,0,107.408-21.782,145.522-57.359C375.362,421.477,347.132,426.667,317.689,426.667z"/>
<g>
	<path style="fill:#BAA78E;" d="M405.333,213.333h-81.067V128H460.8c4.713,0,8.533,3.821,8.533,8.533v12.8
		C469.333,184.679,440.679,213.333,405.333,213.333z"/>
	<path style="fill:#BAA78E;" d="M106.667,213.333h81.067V128H51.2c-4.713,0-8.533,3.821-8.533,8.533v12.8
		C42.667,184.679,71.321,213.333,106.667,213.333z"/>
</g>
<g>
	<path style="fill:#AC9578;" d="M324.267,128v85.333h75.918c-3.348-32.549-16.159-62.058-35.437-85.333H324.267z"/>
	<path style="fill:#AC9578;" d="M187.733,128h-40.48c-19.278,23.276-32.089,52.784-35.437,85.333h75.917V128z"/>
</g>
<path style="fill:#BAA78E;" d="M356.317,145.6H155.683C138.354,168.893,128,198.355,128,230.4c0,75.405,57.308,136.533,128,136.533
	S384,305.805,384,230.4C384,198.355,373.646,168.893,356.317,145.6z"/>
<path style="fill:#754F1E;" d="M256,298.667c-4.713,0-8.533,3.821-8.533,8.533v59.424c2.821,0.198,5.665,0.309,8.533,0.309
	c2.868,0,5.712-0.111,8.533-0.309V307.2C264.533,302.487,260.713,298.667,256,298.667z"/>
<ellipse style="fill:#9E6D4A;" cx="256" cy="277.333" rx="42.667" ry="38.4"/>
<path style="fill:#754F1E;" d="M273.067,307.2c-23.564,0-42.667-17.193-42.667-38.4c0-11.258,5.383-21.385,13.959-28.407
	c-17.904,4.561-31.026,19.366-31.026,36.941c0,21.207,19.103,38.4,42.667,38.4c11.055,0,21.128-3.785,28.707-9.993
	C281.006,306.685,277.104,307.2,273.067,307.2z"/>
<circle style="fill:#C79F69;" cx="273.067" cy="264.533" r="8.533"/>
<g>
	<circle style="fill:#754F1E;" cx="307.2" cy="256" r="8.533"/>
	<circle style="fill:#754F1E;" cx="204.8" cy="256" r="8.533"/>
</g>
<path style="fill:#F1EDE8;" d="M315.733,102.4c-4.959,0-9.748,0.719-14.283,2.034C292.922,88.019,275.776,76.8,256,76.8
	c-19.776,0-36.922,11.219-45.451,27.634c-4.534-1.315-9.324-2.034-14.283-2.034c-28.277,0-51.2,22.923-51.2,51.2
	s22.923,51.2,51.2,51.2c4.959,0,9.748-0.719,14.283-2.034C219.078,219.181,236.224,230.4,256,230.4s36.922-11.219,45.451-27.634
	c4.535,1.315,9.324,2.034,14.283,2.034c28.277,0,51.2-22.923,51.2-51.2S344.011,102.4,315.733,102.4z"/>
<path style="fill:#90BF2C;" d="M76.295,398.34l34.638,36.86l10.473-53.722c2.206-7.722,12.885-8.398,16.048-1.018l16.146,37.673
	l16.749-27.915c3.631-6.051,12.62-5.331,15.241,1.221l10.677,35.227l9.434-27.402c3.145-6.289,12.121-6.289,15.265,0l9.435,18.868
	l17.602-29.337c3.465-5.774,11.938-5.449,14.949,0.574l10.115,37.296l18.773-42.098c3.413-4.551,10.24-4.551,13.653,0l18.773,42.098
	l10.377-32.631c3.266-4.899,10.395-5.097,13.926-0.387l18.364,24.485l17.485-40.798c2.995-6.988,12.943-6.866,15.766,0.192
	l9.415,40.606l29.538-26.913c7.244-2.415,13.741,5.151,10.3,11.967c-5.465,10.827-10.843,24.416-14.238,40.546
	c-4.971,23.614-3.884,44.068-1.751,58.474c0.764,5.162-3.219,9.793-8.437,9.793H86.569c-5.097,0-9.035-4.432-8.478-9.498
	c1.476-13.427,1.899-30.655-1.291-50.236c-2.726-16.739-7.443-31.202-12.54-43.132C61.041,401.599,69.18,394.274,76.295,398.34z"/>
<path style="fill:#72A938;" d="M431.892,468.978H78.741c0.899,12.721,0.389,24.068-0.651,33.524
	c-0.557,5.066,3.381,9.498,8.478,9.498h338.443c5.218,0,9.201-4.631,8.437-9.793C432.122,493.242,431.201,481.932,431.892,468.978z"
	/>
<g>
</g>
<g>
</g>
<g>
</g>
<g>
</g>
<g>
</g>
<g>
</g>
<g>
</g>
<g>
</g>
<g>
</g>
<g>
</g>
<g>
</g>
<g>
</g>
<g>
</g>
<g>
</g>
<g>
</g>
</svg>
